<?xml version="1.0" encoding="utf-8"?>
<!-- Generator: Adobe Illustrator 23.1.0, SVG Export Plug-In . SVG Version: 6.00 Build 0)  -->
<svg version="1.1" id="Layer_1" xmlns="http://www.w3.org/2000/svg" xmlns:xlink="http://www.w3.org/1999/xlink" x="0px" y="0px"
	 viewBox="0 0 566.93 566.93" style="enable-background:new 0 0 566.93 566.93;" xml:space="preserve">
<style type="text/css">
	.st0{fill:#ED1C24;}
	.st1{fill:#FFFFFF;}
</style>
<rect x="602.49" width="566.93" height="566.93"/>
<g>
	<g>
		<g>
			<g>
				<g>
					<path d="M265.33,255.63c0.44,0.7-0.43,2.42-2.61,5.16c-2.18,2.74-4,4.09-5.47,4.05c-1.57-0.04-2.82-0.74-3.74-2.1
						c-0.15-0.41-0.51-1.01-1.1-1.79l-15.49-12.17v11.43c0,0.45,0.21,1.03,0.62,1.73c0.42,0.7,0.62,1.21,0.62,1.54
						c0,1.24-0.95,1.92-2.86,2.04c-1.47,0.12-3.65-0.1-6.53-0.68c-3.13-0.58-4.7-1.19-4.7-1.85c0-0.21,0.06-0.48,0.18-0.83
						c0.12-0.35,0.18-0.79,0.18-1.33V217.7c0-0.29-0.07-0.54-0.22-0.77c-0.15-0.23-0.22-0.4-0.22-0.52
						c0.05-1.11,1.03-1.77,2.94-1.98c0.59-0.08,1.92,0.11,4,0.59c2.08,0.47,3.56,0.69,4.44,0.65c0.83-0.04,2.53-0.61,5.1-1.7
						c2.57-1.09,4.81-1.64,6.72-1.64c0.73,0,1.49,0.06,2.28,0.19c1.37,0.25,2.62,0.78,3.74,1.61c1.13,0.82,2.2,1.65,3.23,2.47
						c2.69,2.14,4.09,3.27,4.19,3.4c1.27,1.24,1.96,2.62,2.06,4.14c0.29,4.78-4.55,10.91-14.54,18.41
						c2.06,1.56,6.58,5.37,13.58,11.43c0.44,0.12,1.08,0.37,1.91,0.74C264.13,254.91,264.69,255.22,265.33,255.63z M249.1,221.1
						c-2.3,0-6.36,2.02-12.19,6.05v9.45c2.1-0.7,4.87-2.82,8.3-6.36c3.43-3.54,5.14-6.18,5.14-7.91
						C250.35,221.51,249.93,221.1,249.1,221.1z"/>
				</g>
				<g>
					<path d="M299.32,252.6c0.44,0.62-0.51,2.45-2.86,5.5c-2.55,3.25-5.04,5.45-7.49,6.61c-0.29,0.12-0.73,0.19-1.32,0.19
						c-1.91,0-4.4-0.49-7.49-1.48c-3.28-0.99-5.43-2.06-6.46-3.21c-2.84-3.09-4.26-7.37-4.26-12.85c0-5.19,1.25-9.76,3.74-13.71
						c2.69-4.32,6.12-6.53,10.28-6.61c1.52-0.04,3.35,0.29,5.51,0.99c2.64,0.86,4.82,2.04,6.53,3.52c0.44,0.37,0.86,1.48,1.25,3.34
						c0.49,1.98,0.73,3.91,0.73,5.8c0,2.8-0.54,4.74-1.61,5.81c-5.04,1.36-10.18,2.12-15.42,2.29c-0.1,2.02,0.19,4.14,0.88,6.36
						c0.68,2.22,1.39,3.36,2.13,3.4c0.98,0.04,2.15-0.64,3.52-2.04c1.22-1.19,1.98-2.2,2.28-3.03c0.34-1.24,0.81-2.51,1.4-3.83
						c0.78-0.08,2.32,0.25,4.63,0.99C297.58,251.37,298.93,252.02,299.32,252.6z M286.25,233.7c-0.83-0.08-1.99,1.03-3.49,3.34
						c-1.49,2.31-2.36,4.51-2.61,6.61c2.2-0.08,3.96-0.53,5.29-1.36c0.78-0.49,1.17-2.55,1.17-6.18
						C286.62,234.59,286.49,233.78,286.25,233.7z"/>
				</g>
				<g>
					<path d="M332.28,257.29c0,2.27-0.89,4.08-2.68,5.44c-1.79,1.36-4.3,2.06-7.53,2.1c-0.78,0-1.64-0.1-2.57-0.31
						c-1.67-0.37-2.55-0.58-2.64-0.62c-0.88-0.16-1.78-0.34-2.68-0.52c-0.91-0.19-1.68-0.5-2.31-0.96c-1.08-0.82-2.13-1.96-3.16-3.4
						c-0.83-1.15-1.64-2.33-2.42-3.52c-0.78-1.19-1.17-1.92-1.17-2.16c0-0.58,0.49-1.01,1.47-1.3c0.24-0.08,0.68-0.12,1.32-0.12
						c1.47,0,3.32,0.13,5.54,0.4c2.23,0.27,3.44,0.49,3.63,0.68c0.19,0.19,0.46,1.37,0.81,3.55c0.29,1.89,0.81,2.84,1.54,2.84
						c1.13,0,1.69-1.28,1.69-3.83c0-3.25-1.03-5.29-3.08-6.11c-4.7-1.85-7.78-3.5-9.25-4.94c-1.81-1.77-2.72-4.45-2.72-8.03
						c0-2.35,0.73-4.56,2.2-6.64c1.47-2.08,3.21-3.32,5.21-3.74c0.88-0.16,3.72,0.62,8.52,2.35c0.44,0.12,1.74,0.35,3.89,0.68
						c1.52,0.25,2.59,0.68,3.23,1.3c0.93,0.95,1.47,2.45,1.62,4.51c0.05,1.52,0.07,3.05,0.07,4.57c0.34,1.4,0.51,2.22,0.51,2.47
						c0,1.15-0.66,1.81-1.98,1.98c-0.69,0.08-2.03-0.14-4.04-0.68c-2.2-0.62-3.6-1.26-4.18-1.91c-0.15-0.16-0.29-1.71-0.44-4.63
						c-0.15-2.76-0.49-4.14-1.03-4.14c-0.73,0-1.42,0.8-2.06,2.41c-0.64,1.61-0.95,3.27-0.95,5c0,2.18,0.56,3.56,1.69,4.14
						c2.4,1.11,4.78,2.23,7.16,3.37c2.37,1.13,4.03,2.3,4.96,3.49C331.67,252.56,332.28,254.66,332.28,257.29z"/>
				</g>
			</g>
			<g>
				<path d="M366.17,244.14c-0.69,0.21-1.49,0.29-2.42,0.25c-0.34,0-1.07-0.12-2.17-0.37c-1.1-0.25-2.02-0.37-2.75-0.37H347.6
					c-0.54,0-1.17,0.22-1.91,0.65c-0.73,0.43-1.37,0.63-1.91,0.59c-0.98-0.08-1.76-0.54-2.35-1.39c-0.59-0.84-1.15-1.68-1.69-2.5
					c-0.54-0.58-1.09-1.18-1.65-1.82c-0.56-0.64-0.84-1.14-0.84-1.51c-0.05-0.74,0.22-1.42,0.81-2.04c0.59-0.62,1.25-0.99,1.98-1.11
					c0.93,0.04,2.5,0.06,4.7,0.06c1.86-0.12,3.7-0.23,5.51-0.31c3.92-0.21,7.02-0.31,9.32-0.31c2.74,0,4.33,0.15,4.77,0.43
					c0.88,0.58,1.66,1.77,2.35,3.58c0.59,1.65,0.88,3.07,0.88,4.26C367.57,243.17,367.1,243.81,366.17,244.14z"/>
			</g>
			<g>
				<g>
					<path d="M394.99,257.8l-0.14,0.29c0.03-0.01,0.04-0.03,0.04-0.04c0.01-0.03,0.04-0.06,0.06-0.08c0.01,0,0.01-0.01,0.01-0.01
						c0.01-0.01,0.03-0.03,0.03-0.04l5.8-11.74L394.99,257.8z M394.99,257.92l-0.03,0.07c0.03-0.04,0.11-0.14,0.22-0.29
						C395.11,257.78,395.05,257.86,394.99,257.92z"/>
				</g>
				<g>
					<path d="M415.33,257.93c-1.5,2.34-2.98,3.84-4.44,4.5c-0.81,0.34-1.75,0.4-2.8,0.14c-0.5-0.13-0.95-0.36-1.37-0.69
						c-0.63-0.54-1.13-0.89-1.48-1.08c0,0,0.01-0.02,0.04-0.04c0.39-0.45,3.59-4.25,6.39-10.23c0.35,0.22,1.07,0.62,2.15,1.19
						c0.6,0.16,1.2,0.33,1.8,0.48c0.86,0.27,1.35,0.61,1.48,1.01C417.32,254.1,416.72,255.67,415.33,257.93z"/>
				</g>
				<g>
					<path d="M394.99,257.8c-0.01,0.06-0.03,0.1-0.03,0.15c0.01-0.01,0.03-0.03,0.03-0.04l5.8-11.74L394.99,257.8z"/>
				</g>
				<g>
					<path d="M408.76,218.84c-2.25-1.65-4.74-3-7.49-4.07c-2.75-1.07-5.09-1.6-7.04-1.6c-0.49,0-0.95,0.04-1.37,0.11
						c-0.42,0.08-0.96,0.35-1.65,0.81c-0.68,0.45-1.3,0.68-1.84,0.68c-0.39,0-0.92-0.15-1.58-0.43c-0.66-0.29-1.16-0.39-1.51-0.31
						c-3.14,0.78-5.83,3.92-8.12,9.41c-2.27,5.5-3.4,11.37-3.4,17.63c0,10.84,3.25,17.88,9.76,21.13c0.82,0.4,1.74,0.71,2.75,0.92
						c1,0.21,1.99,0.39,2.97,0.56c0.39,0.08,1.69,0.5,3.89,1.24c1.14,0.39,2.44,0.6,3.88,0.61c0.33,0.01,0.68,0.01,1.05,0
						c1.81-0.08,3.35-0.68,4.63-1.8c0,0,0.01-0.01,0.04-0.04c0.42-0.42,3.91-3.96,7.15-9.71c0.68-1,1.3-2.13,1.81-3.38
						c1.52-3.65,2.29-8.35,2.29-14.1C415,227.73,412.92,221.83,408.76,218.84z M402.01,242.98c-0.28,1.09-0.63,2.09-1.09,2.96
						c-0.03,0.07-0.07,0.14-0.1,0.2l-0.03,0.04l-5.8,11.74c0.06-0.06,0.11-0.14,0.2-0.22c-0.11,0.15-0.2,0.25-0.22,0.29l0.03-0.07
						c0,0.01-0.01,0.03-0.03,0.04c0,0,0,0.01-0.01,0.01c0,0.01,0,0.01,0,0.03c-0.01,0.01-0.03,0.04-0.06,0.06
						c0,0.01-0.01,0.03-0.04,0.04c-0.14,0.14-0.36,0.24-0.66,0.31c-0.13,0.03-0.25,0.07-0.42,0.08c-1.03,0.04-2.34-1.79-3.96-5.5
						l-0.22-0.86c-1.37-3.12-2.05-6.69-2.05-10.68c0-4.04,0.68-7.94,2.05-11.7c1.37-3.78,3.15-6.62,5.36-8.56
						c0.29-0.61,0.42-1.06,0.38-1.35c0.2-0.33,0.68-0.42,1.46-0.25c1.42,0.29,2.75,2.29,4,6c1.24,3.7,1.87,7.57,1.87,11.6
						C402.67,239.38,402.43,241.29,402.01,242.98z"/>
				</g>
				<g>
					<path d="M402.06,244.66l-0.02,0.04l-4.89,12.04c0.07-0.4,0.15-0.79,0.24-1.19c-0.39-0.5-1.29-1.12-2.73-1.83
						c-0.65-0.31-1.67-0.78-3.04-1.38l-0.29-0.85c2.52-4.91,5.26-7.59,8.22-8.06c0.39-0.07,0.79,0.04,1.2,0.33
						C401.53,244.34,401.96,244.63,402.06,244.66z"/>
				</g>
			</g>
		</g>
		<g>
			<g>
				<path d="M265.29,312.82c0.44,0.7-0.43,2.42-2.61,5.16c-2.18,2.74-4,4.09-5.47,4.05c-1.57-0.04-2.82-0.74-3.74-2.1
					c-0.15-0.41-0.51-1.01-1.1-1.79l-15.49-12.17v11.43c0,0.45,0.21,1.03,0.62,1.73c0.42,0.7,0.62,1.21,0.62,1.54
					c0,1.24-0.95,1.92-2.86,2.04c-1.47,0.12-3.65-0.1-6.53-0.68c-3.13-0.58-4.7-1.19-4.7-1.85c0-0.21,0.06-0.48,0.18-0.83
					c0.12-0.35,0.18-0.79,0.18-1.33v-43.11c0-0.29-0.07-0.54-0.22-0.77c-0.15-0.23-0.22-0.4-0.22-0.52
					c0.05-1.11,1.03-1.77,2.94-1.98c0.59-0.08,1.92,0.11,4,0.59c2.08,0.47,3.56,0.69,4.44,0.65c0.83-0.04,2.53-0.61,5.1-1.7
					c2.57-1.09,4.81-1.64,6.72-1.64c0.73,0,1.49,0.06,2.28,0.19c1.37,0.25,2.62,0.78,3.74,1.61c1.13,0.82,2.2,1.65,3.23,2.47
					c2.69,2.14,4.09,3.27,4.19,3.4c1.27,1.24,1.96,2.62,2.06,4.14c0.29,4.78-4.55,10.91-14.54,18.41
					c2.06,1.56,6.58,5.37,13.58,11.43c0.44,0.12,1.08,0.37,1.91,0.74C264.09,312.1,264.65,312.41,265.29,312.82z M249.06,278.29
					c-2.3,0-6.36,2.02-12.19,6.05v9.45c2.1-0.7,4.87-2.82,8.3-6.36c3.43-3.54,5.14-6.18,5.14-7.91
					C250.31,278.7,249.89,278.29,249.06,278.29z"/>
			</g>
			<g>
				<path d="M303.68,285.33c0.34,0.41,0.51,0.82,0.51,1.24s-0.28,0.91-0.84,1.48c-0.56,0.58-0.84,0.95-0.84,1.11v28.72
					c0,0.25,0.16,0.68,0.48,1.3c0.32,0.62,0.48,1.07,0.48,1.36c0,0.74-0.76,1.28-2.28,1.61c-0.78,0.16-2.62-0.06-5.51-0.68
					c-3.13-0.66-4.84-1.32-5.14-1.98c-0.25-0.53-0.17-1.26,0.22-2.16c0.49-1.07,0.73-1.81,0.73-2.22c0-0.41-0.07-0.95-0.22-1.61
					c-0.73,2.06-1.76,3.89-3.08,5.5c-1.62,1.89-3.23,2.84-4.85,2.84c-1.66,0-3.82-0.47-6.46-1.42c-2.64-0.95-4.16-1.81-4.55-2.59
					c-1.37-2.64-2.06-12.37-2.06-29.22c-0.39-0.78-0.59-1.56-0.59-2.35c0-1.28,0.56-2.14,1.69-2.59c0.34-0.12,0.95-0.19,1.84-0.19
					c1.66,0,3.65,0.22,5.95,0.65c2.3,0.43,3.7,0.88,4.19,1.33c0.25,0.25,0.37,0.52,0.37,0.8c0,0.45-0.37,1.18-1.1,2.19
					c-0.73,1.01-1.1,1.74-1.1,2.19c-0.1,16.22,0.05,24.4,0.44,24.52c0.69,0.21,2.41-1.7,5.18-5.71c2.76-4.02,4.15-7.07,4.15-9.17
					v-11.55c-0.64-0.54-0.95-1.19-0.95-1.98c0-1.61,0.83-2.7,2.5-3.27c0.19-0.08,0.49-0.12,0.88-0.12c1.32,0,3.25,0.26,5.8,0.77
					C302.04,284.64,303.44,285.04,303.68,285.33z"/>
			</g>
			<g>
				<path d="M344.21,316.65c0.39,0.78,0.59,1.56,0.59,2.35c0,1.24-0.56,2.08-1.69,2.53c-0.34,0.12-0.95,0.19-1.83,0.19
					c-1.67,0-3.65-0.22-5.95-0.65c-2.3-0.43-3.7-0.86-4.19-1.27c-0.25-0.25-0.37-0.51-0.37-0.8c0-0.45,0.37-1.18,1.1-2.19
					c0.73-1.01,1.1-1.74,1.1-2.19c0.1-16.22-0.05-24.4-0.44-24.52c-0.69-0.2-2.38,1.65-5.07,5.56c-2.84,4.12-4.26,7.23-4.26,9.33
					v11.55c0.63,0.54,0.95,1.2,0.95,1.98c0,1.56-0.83,2.63-2.5,3.21c-0.2,0.08-0.49,0.12-0.88,0.12c-1.32,0-3.26-0.26-5.8-0.77
					c-2.55-0.52-3.96-0.94-4.26-1.27c-0.29-0.33-0.44-0.7-0.44-1.11c0-0.41,0.28-0.91,0.84-1.48c0.56-0.58,0.84-0.95,0.84-1.11
					v-28.72c0-0.33-0.2-0.76-0.59-1.3c-0.39-0.54-0.51-0.99-0.37-1.36c0.29-0.86,1.05-1.42,2.28-1.67c0.78-0.16,2.62,0.06,5.51,0.68
					c3.13,0.66,4.85,1.34,5.14,2.04c0.19,0.45,0.12,1.13-0.22,2.04c-0.54,1.44-0.81,2.27-0.81,2.47c0,0.45,0.1,0.95,0.29,1.48
					c0.73-2.06,1.76-3.89,3.08-5.5c1.62-1.94,3.23-2.9,4.84-2.9c1.66,0,3.82,0.48,6.46,1.45c2.64,0.97,4.16,1.84,4.55,2.63
					C343.53,290.07,344.21,299.81,344.21,316.65z"/>
			</g>
			<g>
				<path d="M385.48,316.65c0.39,0.78,0.59,1.56,0.59,2.35c0,1.24-0.56,2.08-1.69,2.53c-0.34,0.12-0.95,0.19-1.83,0.19
					c-1.67,0-3.65-0.22-5.95-0.65c-2.3-0.43-3.7-0.86-4.19-1.27c-0.25-0.25-0.37-0.51-0.37-0.8c0-0.45,0.37-1.18,1.1-2.19
					c0.73-1.01,1.1-1.74,1.1-2.19c0.1-16.22-0.05-24.4-0.44-24.52c-0.69-0.2-2.38,1.65-5.07,5.56c-2.84,4.12-4.26,7.23-4.26,9.33
					v11.55c0.63,0.54,0.95,1.2,0.95,1.98c0,1.56-0.83,2.63-2.5,3.21c-0.2,0.08-0.49,0.12-0.88,0.12c-1.32,0-3.26-0.26-5.8-0.77
					c-2.55-0.52-3.96-0.94-4.26-1.27c-0.29-0.33-0.44-0.7-0.44-1.11c0-0.41,0.28-0.91,0.84-1.48c0.56-0.58,0.84-0.95,0.84-1.11
					v-28.72c0-0.33-0.2-0.76-0.59-1.3c-0.39-0.54-0.51-0.99-0.37-1.36c0.29-0.86,1.05-1.42,2.28-1.67c0.78-0.16,2.62,0.06,5.51,0.68
					c3.13,0.66,4.85,1.34,5.14,2.04c0.19,0.45,0.12,1.13-0.22,2.04c-0.54,1.44-0.81,2.27-0.81,2.47c0,0.45,0.1,0.95,0.29,1.48
					c0.73-2.06,1.76-3.89,3.08-5.5c1.62-1.94,3.23-2.9,4.84-2.9c1.66,0,3.82,0.48,6.46,1.45c2.64,0.97,4.16,1.84,4.55,2.63
					C384.79,290.07,385.48,299.81,385.48,316.65z"/>
			</g>
			<g>
				<path d="M421.89,309.79c0.44,0.62-0.51,2.45-2.86,5.5c-2.55,3.25-5.04,5.45-7.49,6.61c-0.29,0.12-0.73,0.19-1.32,0.19
					c-1.91,0-4.41-0.49-7.49-1.48c-3.28-0.99-5.43-2.06-6.46-3.21c-2.84-3.09-4.26-7.37-4.26-12.85c0-5.19,1.25-9.76,3.74-13.71
					c2.69-4.32,6.12-6.53,10.28-6.61c1.52-0.04,3.35,0.29,5.51,0.99c2.64,0.86,4.82,2.04,6.53,3.52c0.44,0.37,0.86,1.48,1.25,3.34
					c0.49,1.98,0.73,3.91,0.73,5.8c0,2.8-0.54,4.74-1.62,5.81c-5.04,1.36-10.18,2.12-15.42,2.29c-0.1,2.02,0.19,4.14,0.88,6.36
					c0.69,2.22,1.39,3.36,2.13,3.4c0.98,0.04,2.15-0.64,3.52-2.04c1.22-1.19,1.98-2.2,2.28-3.03c0.34-1.24,0.81-2.51,1.39-3.83
					c0.78-0.08,2.32,0.25,4.63,0.99C420.15,308.55,421.5,309.21,421.89,309.79z M408.82,290.89c-0.83-0.08-2,1.03-3.49,3.34
					c-1.49,2.31-2.36,4.51-2.61,6.61c2.2-0.08,3.96-0.53,5.29-1.36c0.78-0.49,1.17-2.55,1.17-6.18
					C409.19,291.77,409.07,290.97,408.82,290.89z"/>
			</g>
			<g>
				<path d="M455.08,287.86c0.19,0.66-0.07,1.19-0.81,1.61c-0.59,0.25-1.15,0.51-1.69,0.8c-3.08,3.95-7.27,9.28-12.56,16
					c0,6.55,0.02,9.92,0.07,10.13c0.05,0.21,0.23,0.73,0.55,1.57c0.32,0.84,0.48,1.51,0.48,2.01c0,0.78-0.42,1.32-1.25,1.61
					c-0.54,0.21-1.27,0.31-2.2,0.31c-1.86,0-3.92-0.35-6.17-1.05c-2.84-0.82-4.26-1.87-4.26-3.15c0-0.37,0.2-0.97,0.59-1.79
					c0.39-0.82,0.59-1.5,0.59-2.04v-24.46c-0.54-2.31-0.81-3.5-0.81-3.58c0-1.27,0.69-2.08,2.06-2.41c0.59-0.12,1.3-0.19,2.13-0.19
					c1.71,0,3.51,0.24,5.4,0.71c1.88,0.47,3,0.98,3.34,1.51c0.1,0.17,0.15,0.37,0.15,0.62c0,0.21-0.34,1.19-1.03,2.97V292
					c1.17-1.77,2.32-3.54,3.45-5.31c1.52-2.22,2.64-3.4,3.38-3.52c1.08-0.16,2.72,0.37,4.92,1.61
					C453.61,286.01,454.83,287.04,455.08,287.86z"/>
			</g>
		</g>
	</g>
	<g>
		<g>
			<path class="st0" d="M214.15,242.73h-29.22c-1.15,0-2.09-0.93-2.09-2.09v-29.22c0-1.15-0.93-2.09-2.09-2.09H140.4
				c-1.15,0-2.09,0.93-2.09,2.09v29.22c0,1.15-0.93,2.09-2.09,2.09H107c-1.15,0-2.09,0.93-2.09,2.09v40.36
				c0,1.15,0.93,2.09,2.09,2.09h29.22c1.15,0,2.09,0.93,2.09,2.09v29.22c0,1.15,0.93,2.09,2.09,2.09h40.36
				c1.15,0,2.09-0.93,2.09-2.09v-29.22c0-1.15,0.93-2.09,2.09-2.09h29.22c1.15,0,2.09-0.93,2.09-2.09v-40.36
				C216.24,243.66,215.3,242.73,214.15,242.73z"/>
		</g>
		<g>
			<g>
				<path class="st1" d="M172.45,231.87c0.5,0.12,1.01,0.19,1.49,0.35c2.06,0.7,3.36,2.22,4.17,4.15
					c2.21,5.22,0.07,12.66-4.54,15.95c-2.52,1.8-5.67,1.87-7.81,0.17c-1.79-1.42-2.79-3.34-3.1-5.56
					c-0.67-4.87,0.61-9.16,4.12-12.69c1.26-1.27,2.77-2.1,4.59-2.26c0.1-0.01,0.2-0.07,0.3-0.1
					C171.94,231.87,172.19,231.87,172.45,231.87z"/>
			</g>
			<g>
				<path class="st1" d="M149.44,231.87c0.52,0.11,1.05,0.2,1.56,0.34c1.96,0.56,3.41,1.83,4.57,3.41c2.92,3.99,3.9,8.39,2.36,13.16
					c-0.68,2.13-2.05,3.82-4.23,4.57c-2.34,0.81-4.51,0.25-6.43-1.25c-2.81-2.21-4.28-5.21-4.93-8.66c-0.44-2.31-0.33-4.6,0.54-6.79
					c0.88-2.24,2.33-3.96,4.79-4.58c0.33-0.08,0.67-0.14,1-0.21C148.93,231.87,149.19,231.87,149.44,231.87z"/>
			</g>
			<g>
				<path class="st1" d="M191.32,258.23c-0.17,0.79-0.31,1.6-0.53,2.37c-0.88,3.14-2.56,5.76-5.23,7.69
					c-1.55,1.12-3.29,1.65-5.22,1.45c-1.61-0.16-2.85-0.91-3.75-2.23c-1.64-2.41-1.8-5.06-1.16-7.8c0.8-3.46,2.54-6.32,5.45-8.42
					c1.25-0.9,2.65-1.41,4.2-1.46c2.38-0.09,4.14,0.94,5.17,3.05c0.5,1.02,0.73,2.18,1.08,3.27
					C191.32,256.85,191.32,257.54,191.32,258.23z"/>
			</g>
			<g>
				<path class="st1" d="M175.05,288.71c-2.36,0.08-4.56-0.59-6.74-1.33c-1.36-0.46-2.72-0.93-4.08-1.39
					c-2.47-0.84-4.95-0.79-7.42-0.04c-2.41,0.72-4.79,1.51-7.21,2.19c-2.05,0.57-4.15,0.7-6.26,0.22c-2.67-0.61-4.06-2.31-4.07-5.04
					c-0.01-1.79,0.41-3.5,1.13-5.13c3.04-6.84,7.88-12,14.6-15.33c3.64-1.8,7.36-1.9,11-0.07c7.11,3.57,12.27,9,15.12,16.47
					c0.43,1.12,0.61,2.38,0.7,3.59c0.24,2.99-1.14,4.8-4.1,5.48C176.85,288.51,175.95,288.58,175.05,288.71z"/>
			</g>
			<g>
				<path class="st1" d="M136.12,249.84c1.56,0.03,3.19,0.65,4.58,1.81c3.75,3.15,5.59,7.17,5.23,12.09
					c-0.12,1.64-0.77,3.12-1.87,4.37c-1.47,1.67-3.93,2.15-6.43,1.27c-1.87-0.66-3.31-1.89-4.54-3.4c-2.15-2.64-3.29-5.67-3.27-9.09
					c0.01-1.57,0.43-3.05,1.25-4.41C132.17,250.7,133.75,249.82,136.12,249.84z"/>
			</g>
		</g>
	</g>
	<g>
		<path d="M107.56,340.37c-0.58,0-1.05-0.14-1.4-0.41s-0.53-0.66-0.53-1.16c0-0.27,0.04-0.54,0.11-0.83l1.24-4.63h-1.09l0.28-1.04
			h1.1l0.64-2.39h1.17l-0.64,2.39h2.5l-0.28,1.04h-2.5l-1.23,4.57c-0.04,0.25-0.06,0.44-0.06,0.58c0,0.54,0.36,0.81,1.09,0.81
			c0.35,0,0.73-0.08,1.15-0.25l-0.29,1.07C108.44,340.29,108.02,340.37,107.56,340.37z"/>
		<path d="M122.99,340.23l2.12-7.93h1.18l-0.54,2.07c1.08-1.55,2.34-2.29,3.77-2.21l-0.34,1.27h-0.08c-0.91,0-1.74,0.32-2.5,0.97
			s-1.29,1.54-1.6,2.7l-0.84,3.13H122.99z"/>
		<path d="M143.58,340.4c-0.71,0-1.3-0.2-1.78-0.59c-0.48-0.39-0.72-0.93-0.72-1.6c0-0.88,0.33-1.58,0.98-2.09
			c0.65-0.52,1.5-0.77,2.55-0.77c0.87,0,1.8,0.14,2.81,0.43l0.06-0.2c0.06-0.29,0.09-0.53,0.09-0.72c0-1.06-0.71-1.6-2.13-1.6
			c-0.75,0-1.49,0.14-2.24,0.41l-0.21-1c0.85-0.33,1.73-0.49,2.64-0.49c0.99,0,1.76,0.22,2.3,0.65s0.81,1.04,0.81,1.82
			c0,0.32-0.05,0.68-0.15,1.09l-1.2,4.5h-1.17l0.32-1.24C145.73,339.93,144.74,340.4,143.58,340.4z M143.96,339.46
			c0.69,0,1.33-0.22,1.93-0.66c0.6-0.44,0.99-1,1.17-1.69l0.15-0.55c-0.88-0.23-1.73-0.35-2.56-0.35c-0.7,0-1.26,0.17-1.7,0.52
			s-0.66,0.79-0.66,1.33c0,0.42,0.15,0.76,0.45,1.01S143.45,339.46,143.96,339.46z"/>
		<path d="M162,340.23l2.12-7.93h1.18l-0.34,1.29c0.86-0.97,1.78-1.46,2.76-1.46c0.77,0,1.38,0.22,1.84,0.67
			c0.46,0.44,0.69,1.04,0.69,1.79c0,0.31-0.07,0.72-0.2,1.23l-1.17,4.42h-1.18l1.2-4.5c0.08-0.28,0.12-0.57,0.12-0.89
			c0-0.52-0.16-0.93-0.48-1.22c-0.32-0.29-0.75-0.44-1.3-0.44c-0.61,0-1.19,0.24-1.74,0.72c-0.55,0.48-0.92,1.09-1.13,1.84
			l-1.2,4.48H162z"/>
		<path d="M186.6,340.4c-1.36,0-2.5-0.46-3.42-1.38l0.77-0.77c0.81,0.78,1.73,1.17,2.76,1.17c0.47,0,0.88-0.12,1.23-0.37
			c0.35-0.25,0.52-0.56,0.52-0.95c0-0.27-0.11-0.5-0.33-0.71c-0.22-0.21-0.61-0.42-1.17-0.64c-0.78-0.31-1.35-0.62-1.7-0.93
			c-0.36-0.31-0.54-0.73-0.54-1.25c0-0.7,0.28-1.28,0.83-1.74s1.28-0.7,2.18-0.7c0.55,0,1.09,0.11,1.61,0.31
			c0.52,0.21,0.96,0.47,1.32,0.78l-0.69,0.81c-0.76-0.61-1.54-0.92-2.35-0.92c-0.53,0-0.95,0.12-1.26,0.37
			c-0.31,0.25-0.46,0.54-0.46,0.89c0,0.27,0.11,0.5,0.33,0.7c0.22,0.2,0.64,0.42,1.25,0.65c0.76,0.31,1.31,0.62,1.65,0.95
			c0.34,0.33,0.51,0.74,0.51,1.23c0,0.73-0.29,1.33-0.87,1.79C188.18,340.16,187.46,340.4,186.6,340.4z"/>
		<path d="M202.6,342.68l2.78-10.39h1.18l-0.37,1.37c0.91-1.02,1.91-1.53,3.01-1.53c0.91,0,1.66,0.31,2.25,0.93
			c0.59,0.62,0.89,1.43,0.89,2.43c0,1.38-0.44,2.55-1.33,3.5c-0.89,0.95-1.93,1.43-3.11,1.43c-1.42,0-2.41-0.66-2.98-1.96
			l-1.14,4.23H202.6z M207.78,339.37c0.93,0,1.72-0.37,2.35-1.12c0.64-0.75,0.96-1.63,0.96-2.65c0-0.74-0.2-1.33-0.61-1.76
			s-0.95-0.66-1.63-0.66c-0.89,0-1.7,0.38-2.43,1.14c-0.73,0.76-1.1,1.62-1.1,2.58c0,0.7,0.23,1.28,0.69,1.76
			C206.48,339.13,207.07,339.37,207.78,339.37z"/>
		<path d="M229.58,340.41c-1.07,0-1.94-0.33-2.61-1c-0.67-0.66-1-1.52-1-2.56c0-1.25,0.46-2.35,1.39-3.3s2.02-1.43,3.28-1.43
			c1.08,0,1.96,0.33,2.62,1c0.66,0.67,1,1.51,1,2.55c0,1.27-0.47,2.38-1.4,3.32C231.92,339.94,230.83,340.41,229.58,340.41z
			 M229.66,339.35c0.89,0,1.68-0.37,2.36-1.11c0.69-0.74,1.03-1.58,1.03-2.52c0-0.8-0.23-1.42-0.68-1.87s-1.06-0.68-1.8-0.68
			c-0.9,0-1.69,0.38-2.37,1.13c-0.68,0.75-1.02,1.59-1.02,2.52c0,0.79,0.23,1.41,0.68,1.86
			C228.31,339.13,228.91,339.35,229.66,339.35z"/>
		<path d="M247.4,340.23l2.12-7.93h1.18l-0.54,2.07c1.08-1.55,2.34-2.29,3.77-2.21l-0.34,1.27h-0.08c-0.91,0-1.74,0.32-2.5,0.97
			s-1.29,1.54-1.6,2.7l-0.84,3.13H247.4z"/>
		<path d="M268.52,340.37c-0.58,0-1.05-0.14-1.4-0.41s-0.53-0.66-0.53-1.16c0-0.27,0.04-0.54,0.11-0.83l1.24-4.63h-1.09l0.28-1.04
			h1.1l0.64-2.39h1.17l-0.64,2.39h2.5l-0.28,1.04h-2.5l-1.23,4.57c-0.04,0.25-0.06,0.44-0.06,0.58c0,0.54,0.36,0.81,1.09,0.81
			c0.35,0,0.73-0.08,1.15-0.25l-0.29,1.07C269.4,340.29,268.98,340.37,268.52,340.37z"/>
		<path d="M308.96,340.44l-1.2-1.67c-0.58,0.55-1.17,0.96-1.76,1.22c-0.59,0.26-1.25,0.39-1.98,0.39c-0.92,0-1.68-0.25-2.27-0.74
			c-0.59-0.49-0.89-1.16-0.89-2.01c0-0.82,0.3-1.53,0.9-2.15c0.6-0.61,1.49-1.08,2.66-1.41c-0.45-0.76-0.67-1.42-0.67-1.99
			c0-0.78,0.29-1.43,0.86-1.97c0.57-0.54,1.28-0.81,2.12-0.81c0.8,0,1.44,0.21,1.92,0.64c0.48,0.43,0.72,0.99,0.72,1.67
			c0,1.34-1.1,2.33-3.31,2.96l1.92,2.68c0.57-0.64,1.12-1.42,1.66-2.33l0.81,0.52c-0.63,1.04-1.26,1.9-1.87,2.58l1.3,1.83
			L308.96,340.44z M304.16,339.34c1.03,0,2.04-0.45,3.02-1.35l-2.22-3.13c-0.97,0.25-1.7,0.61-2.18,1.08
			c-0.48,0.48-0.72,1.01-0.72,1.6c0,0.55,0.19,0.99,0.57,1.31C303,339.18,303.52,339.34,304.16,339.34z M305.51,333.81
			c1.81-0.5,2.71-1.21,2.71-2.13c0-0.41-0.14-0.74-0.42-1c-0.28-0.25-0.66-0.38-1.13-0.38c-0.5,0-0.93,0.17-1.27,0.52
			s-0.52,0.77-0.52,1.26C304.88,332.6,305.09,333.18,305.51,333.81z"/>
		<path d="M340.14,340.23l2.12-7.93h1.18l-0.54,2.07c1.08-1.55,2.34-2.29,3.77-2.21l-0.34,1.27h-0.08c-0.91,0-1.74,0.32-2.5,0.97
			c-0.76,0.64-1.29,1.54-1.6,2.7l-0.84,3.13H340.14z"/>
		<path d="M360.1,336.71c-0.01,0.06-0.01,0.15-0.01,0.28c0,0.73,0.21,1.31,0.64,1.74c0.43,0.44,1.01,0.65,1.75,0.65
			c0.86,0,1.67-0.31,2.44-0.94l0.61,0.78c-0.93,0.79-1.97,1.18-3.11,1.18c-1.05,0-1.9-0.31-2.55-0.94
			c-0.64-0.62-0.97-1.44-0.97-2.44c0-1.26,0.45-2.39,1.34-3.4c0.89-1.01,1.99-1.51,3.28-1.51c0.96,0,1.71,0.29,2.25,0.87
			s0.81,1.3,0.81,2.17c0,0.51-0.1,1.03-0.29,1.55H360.1z M360.26,335.76h5.11c0.04-0.2,0.06-0.4,0.06-0.6
			c0-0.58-0.17-1.07-0.51-1.46s-0.83-0.58-1.47-0.58c-0.76,0-1.42,0.25-1.99,0.74C360.9,334.36,360.5,335,360.26,335.76z"/>
		<path d="M382.65,340.4c-1.36,0-2.5-0.46-3.42-1.38l0.77-0.77c0.81,0.78,1.73,1.17,2.76,1.17c0.47,0,0.88-0.12,1.23-0.37
			c0.35-0.25,0.52-0.56,0.52-0.95c0-0.27-0.11-0.5-0.33-0.71s-0.61-0.42-1.17-0.64c-0.78-0.31-1.34-0.62-1.7-0.93
			c-0.36-0.31-0.54-0.73-0.54-1.25c0-0.7,0.28-1.28,0.83-1.74c0.55-0.47,1.28-0.7,2.18-0.7c0.55,0,1.09,0.11,1.61,0.31
			c0.52,0.21,0.96,0.47,1.32,0.78l-0.69,0.81c-0.76-0.61-1.54-0.92-2.35-0.92c-0.53,0-0.95,0.12-1.26,0.37
			c-0.31,0.25-0.46,0.54-0.46,0.89c0,0.27,0.11,0.5,0.33,0.7c0.22,0.2,0.64,0.42,1.25,0.65c0.76,0.31,1.31,0.62,1.65,0.95
			c0.34,0.33,0.51,0.74,0.51,1.23c0,0.73-0.29,1.33-0.88,1.79C384.23,340.16,383.51,340.4,382.65,340.4z"/>
		<path d="M403.3,340.41c-0.97,0-1.8-0.32-2.49-0.94c-0.69-0.63-1.03-1.47-1.03-2.52c0-1.3,0.46-2.43,1.39-3.38s2.02-1.43,3.28-1.43
			c0.78,0,1.43,0.17,1.95,0.52s0.93,0.79,1.21,1.33l-0.95,0.6c-0.56-0.94-1.32-1.41-2.29-1.41c-0.9,0-1.69,0.38-2.36,1.13
			s-1.01,1.62-1.01,2.62c0,0.75,0.23,1.34,0.69,1.79c0.46,0.44,1.02,0.67,1.67,0.67c0.8,0,1.58-0.35,2.35-1.04l0.69,0.77
			C405.47,339.97,404.43,340.41,403.3,340.41z"/>
		<path d="M423.2,340.4c-0.77,0-1.38-0.22-1.83-0.67c-0.46-0.44-0.68-1.04-0.68-1.79c0-0.31,0.07-0.72,0.2-1.23l1.17-4.42h1.18
			l-1.21,4.5c-0.07,0.31-0.11,0.6-0.11,0.89c0,0.52,0.16,0.93,0.47,1.22c0.31,0.29,0.74,0.44,1.3,0.44c0.62,0,1.21-0.24,1.76-0.73
			c0.55-0.49,0.92-1.1,1.11-1.85l1.2-4.46h1.18l-2.12,7.93h-1.18l0.35-1.29C425.11,339.91,424.19,340.4,423.2,340.4z"/>
		<path d="M443.25,336.71c-0.01,0.06-0.01,0.15-0.01,0.28c0,0.73,0.21,1.31,0.64,1.74c0.43,0.44,1.01,0.65,1.75,0.65
			c0.86,0,1.67-0.31,2.44-0.94l0.61,0.78c-0.93,0.79-1.97,1.18-3.11,1.18c-1.05,0-1.9-0.31-2.55-0.94
			c-0.64-0.62-0.97-1.44-0.97-2.44c0-1.26,0.45-2.39,1.34-3.4c0.89-1.01,1.99-1.51,3.28-1.51c0.96,0,1.71,0.29,2.25,0.87
			s0.81,1.3,0.81,2.17c0,0.51-0.1,1.03-0.29,1.55H443.25z M443.42,335.76h5.11c0.04-0.2,0.06-0.4,0.06-0.6
			c0-0.58-0.17-1.07-0.51-1.46s-0.83-0.58-1.47-0.58c-0.76,0-1.42,0.25-1.99,0.74C444.05,334.36,443.65,335,443.42,335.76z"/>
	</g>
	<g>
		<path class="st0" d="M455.14,351.1v4.53c0,1.09-0.99,1.98-2.21,1.98H106.66c-1.22,0-2.21-0.89-2.21-1.98v-4.53
			c0-1.09,0.99-1.98,2.21-1.98h346.27C454.15,349.12,455.14,350.01,455.14,351.1z"/>
	</g>
</g>
<g>
	<g>
		<g>
			<g>
				<g>
					<path class="st1" d="M867.87,255.72c0.44,0.7-0.43,2.41-2.6,5.14c-2.17,2.73-3.99,4.07-5.45,4.03
						c-1.56-0.04-2.81-0.74-3.73-2.09c-0.15-0.41-0.51-1.01-1.1-1.79l-15.44-12.13v11.39c0,0.45,0.21,1.03,0.62,1.72
						c0.41,0.7,0.62,1.21,0.62,1.54c0,1.23-0.95,1.91-2.85,2.03c-1.46,0.12-3.64-0.1-6.51-0.68c-3.12-0.57-4.68-1.19-4.68-1.85
						c0-0.21,0.06-0.48,0.18-0.83c0.12-0.35,0.18-0.79,0.18-1.32v-42.97c0-0.29-0.07-0.54-0.22-0.77c-0.15-0.23-0.22-0.4-0.22-0.52
						c0.05-1.11,1.02-1.76,2.93-1.97c0.59-0.08,1.91,0.11,3.99,0.59c2.07,0.47,3.55,0.69,4.43,0.65c0.83-0.04,2.52-0.6,5.09-1.69
						c2.56-1.09,4.79-1.63,6.7-1.63c0.73,0,1.49,0.06,2.27,0.18c1.37,0.25,2.61,0.78,3.73,1.6c1.12,0.82,2.2,1.64,3.22,2.46
						c2.68,2.13,4.07,3.26,4.17,3.39c1.27,1.23,1.95,2.61,2.05,4.12c0.29,4.76-4.54,10.88-14.49,18.35
						c2.05,1.56,6.56,5.36,13.54,11.39c0.44,0.12,1.07,0.37,1.9,0.74C866.68,255,867.24,255.31,867.87,255.72z M851.7,221.3
						c-2.29,0-6.34,2.01-12.15,6.03v9.42c2.1-0.7,4.85-2.81,8.27-6.34c3.41-3.53,5.12-6.16,5.12-7.88
						C852.94,221.71,852.53,221.3,851.7,221.3z"/>
				</g>
				<g>
					<path class="st1" d="M901.76,252.7c0.44,0.62-0.51,2.44-2.85,5.48c-2.54,3.24-5.03,5.44-7.47,6.59
						c-0.29,0.12-0.73,0.18-1.32,0.18c-1.9,0-4.39-0.49-7.46-1.48c-3.27-0.98-5.42-2.05-6.44-3.2c-2.83-3.08-4.24-7.35-4.24-12.81
						c0-5.17,1.24-9.73,3.73-13.67c2.68-4.31,6.1-6.51,10.25-6.59c1.51-0.04,3.34,0.29,5.49,0.99c2.63,0.86,4.81,2.03,6.51,3.51
						c0.44,0.37,0.85,1.48,1.24,3.32c0.49,1.97,0.73,3.9,0.73,5.79c0,2.79-0.54,4.72-1.61,5.79c-5.03,1.35-10.15,2.11-15.37,2.28
						c-0.1,2.01,0.19,4.12,0.88,6.34c0.68,2.22,1.39,3.35,2.12,3.39c0.98,0.04,2.15-0.64,3.51-2.03c1.22-1.19,1.98-2.19,2.27-3.02
						c0.34-1.23,0.81-2.5,1.39-3.82c0.78-0.08,2.32,0.25,4.61,0.98C900.03,251.47,901.37,252.12,901.76,252.7z M888.73,233.86
						c-0.83-0.08-1.99,1.03-3.48,3.32c-1.49,2.3-2.35,4.49-2.6,6.59c2.2-0.08,3.95-0.53,5.27-1.35c0.78-0.49,1.17-2.54,1.17-6.16
						C889.1,234.74,888.97,233.94,888.73,233.86z"/>
				</g>
				<g>
					<path class="st1" d="M934.62,257.38c0,2.26-0.89,4.06-2.67,5.42c-1.78,1.35-4.28,2.05-7.5,2.09c-0.78,0-1.64-0.1-2.56-0.31
						c-1.66-0.37-2.54-0.58-2.63-0.62c-0.88-0.16-1.77-0.34-2.67-0.52c-0.9-0.18-1.67-0.5-2.31-0.95c-1.07-0.82-2.12-1.95-3.15-3.39
						c-0.83-1.15-1.64-2.32-2.42-3.51c-0.78-1.19-1.17-1.91-1.17-2.15c0-0.57,0.49-1.01,1.46-1.29c0.24-0.08,0.68-0.12,1.32-0.12
						c1.46,0,3.31,0.13,5.53,0.4c2.22,0.27,3.43,0.49,3.62,0.68c0.19,0.18,0.46,1.37,0.81,3.54c0.29,1.89,0.81,2.83,1.54,2.83
						c1.12,0,1.68-1.27,1.68-3.82c0-3.24-1.03-5.27-3.07-6.09c-4.68-1.85-7.76-3.49-9.22-4.93c-1.81-1.76-2.71-4.43-2.71-8
						c0-2.34,0.73-4.55,2.2-6.62c1.46-2.07,3.2-3.31,5.2-3.73c0.88-0.16,3.71,0.62,8.49,2.34c0.44,0.12,1.73,0.35,3.88,0.68
						c1.51,0.25,2.59,0.68,3.22,1.29c0.93,0.94,1.46,2.44,1.61,4.49c0.05,1.52,0.07,3.04,0.07,4.56c0.34,1.4,0.51,2.22,0.51,2.46
						c0,1.15-0.66,1.81-1.98,1.97c-0.68,0.08-2.03-0.14-4.03-0.68c-2.2-0.62-3.59-1.25-4.17-1.91c-0.15-0.16-0.29-1.7-0.44-4.62
						c-0.15-2.75-0.49-4.12-1.03-4.12c-0.73,0-1.42,0.8-2.05,2.4c-0.63,1.6-0.95,3.26-0.95,4.99c0,2.18,0.56,3.55,1.68,4.12
						c2.39,1.11,4.77,2.23,7.14,3.35c2.37,1.13,4.01,2.29,4.94,3.48C934.01,252.66,934.62,254.75,934.62,257.38z"/>
				</g>
			</g>
			<g>
				<path class="st1" d="M968.4,244.26c-0.68,0.21-1.49,0.29-2.42,0.25c-0.34,0-1.06-0.12-2.16-0.37c-1.1-0.25-2.01-0.37-2.74-0.37
					h-11.2c-0.54,0-1.17,0.22-1.9,0.65c-0.73,0.43-1.37,0.63-1.9,0.59c-0.98-0.08-1.76-0.54-2.34-1.38
					c-0.59-0.84-1.15-1.67-1.68-2.49c-0.54-0.57-1.09-1.18-1.65-1.82c-0.56-0.64-0.84-1.14-0.84-1.51
					c-0.05-0.74,0.22-1.42,0.81-2.03c0.59-0.62,1.24-0.99,1.98-1.11c0.93,0.04,2.49,0.06,4.68,0.06c1.85-0.12,3.68-0.23,5.49-0.31
					c3.9-0.21,7-0.31,9.29-0.31c2.73,0,4.32,0.15,4.76,0.43c0.88,0.58,1.66,1.76,2.34,3.57c0.59,1.64,0.88,3.06,0.88,4.25
					C969.79,243.3,969.32,243.94,968.4,244.26z"/>
			</g>
			<g>
				<g>
					<path class="st1" d="M997.13,257.89l-0.14,0.29c0.03-0.01,0.04-0.03,0.04-0.04c0.01-0.03,0.04-0.06,0.06-0.08
						c0.01,0,0.01-0.01,0.01-0.01c0.01-0.01,0.03-0.03,0.03-0.04l5.78-11.71L997.13,257.89z M997.13,258l-0.03,0.07
						c0.03-0.04,0.11-0.14,0.22-0.29C997.24,257.86,997.18,257.94,997.13,258z"/>
				</g>
				<g>
					<path class="st1" d="M1017.4,258.01c-1.49,2.33-2.97,3.83-4.42,4.48c-0.81,0.34-1.74,0.4-2.79,0.14
						c-0.5-0.13-0.95-0.36-1.36-0.69c-0.63-0.54-1.13-0.89-1.48-1.07c0,0,0.01-0.01,0.04-0.04c0.38-0.45,3.58-4.23,6.37-10.19
						c0.35,0.22,1.07,0.62,2.14,1.19c0.6,0.16,1.2,0.33,1.79,0.48c0.86,0.27,1.34,0.61,1.47,1
						C1019.38,254.19,1018.79,255.76,1017.4,258.01z"/>
				</g>
				<g>
					<path class="st1" d="M997.13,257.89c-0.01,0.06-0.03,0.1-0.03,0.15c0.01-0.01,0.03-0.03,0.03-0.04l5.78-11.71L997.13,257.89z"
						/>
				</g>
				<g>
					<path class="st1" d="M1010.85,219.04c-2.24-1.64-4.73-2.99-7.47-4.06c-2.74-1.07-5.07-1.6-7.02-1.6
						c-0.49,0-0.95,0.04-1.36,0.11c-0.42,0.08-0.96,0.35-1.64,0.81c-0.68,0.44-1.29,0.68-1.84,0.68c-0.39,0-0.92-0.15-1.57-0.43
						c-0.65-0.29-1.15-0.39-1.5-0.31c-3.13,0.78-5.81,3.91-8.09,9.38c-2.27,5.48-3.39,11.33-3.39,17.57
						c0,10.8,3.24,17.82,9.73,21.06c0.82,0.4,1.74,0.71,2.74,0.92c1,0.21,1.99,0.39,2.96,0.56c0.39,0.08,1.68,0.5,3.88,1.24
						c1.14,0.39,2.43,0.6,3.86,0.61c0.33,0.01,0.68,0.01,1.04,0c1.81-0.08,3.34-0.68,4.62-1.79c0,0,0.01-0.01,0.04-0.04
						c0.42-0.42,3.89-3.95,7.13-9.68c0.68-1,1.29-2.13,1.81-3.36c1.52-3.64,2.28-8.33,2.28-14.06
						C1017.07,227.91,1014.99,222.03,1010.85,219.04z M1004.12,243.11c-0.28,1.08-0.63,2.09-1.08,2.95
						c-0.03,0.07-0.07,0.14-0.1,0.19l-0.03,0.04L997.13,258c0.06-0.06,0.11-0.14,0.19-0.22c-0.11,0.15-0.19,0.25-0.22,0.29
						l0.03-0.07c0,0.01-0.01,0.03-0.03,0.04c0,0,0,0.01-0.01,0.01c0,0.01,0,0.01,0,0.03c-0.01,0.01-0.03,0.04-0.06,0.06
						c0,0.01-0.01,0.03-0.04,0.04c-0.14,0.14-0.36,0.24-0.65,0.31c-0.13,0.03-0.25,0.07-0.42,0.08c-1.03,0.04-2.34-1.78-3.95-5.48
						l-0.22-0.86c-1.36-3.11-2.04-6.67-2.04-10.65c0-4.03,0.68-7.91,2.04-11.66c1.36-3.77,3.14-6.6,5.34-8.54
						c0.29-0.61,0.42-1.06,0.38-1.35c0.19-0.33,0.68-0.42,1.46-0.25c1.42,0.29,2.74,2.28,3.99,5.98c1.24,3.68,1.86,7.55,1.86,11.57
						C1004.78,239.52,1004.54,241.43,1004.12,243.11z"/>
				</g>
				<g>
					<path class="st1" d="M1004.17,244.79l-0.02,0.04l-4.88,12c0.07-0.4,0.15-0.79,0.24-1.19c-0.39-0.5-1.28-1.11-2.72-1.83
						c-0.65-0.31-1.66-0.78-3.03-1.37l-0.29-0.84c2.51-4.89,5.25-7.57,8.2-8.03c0.38-0.07,0.78,0.04,1.2,0.33
						C1003.64,244.46,1004.07,244.75,1004.17,244.79z"/>
				</g>
			</g>
		</g>
		<g>
			<g>
				<path class="st1" d="M867.83,312.72c0.44,0.7-0.43,2.41-2.6,5.14c-2.17,2.73-3.99,4.07-5.45,4.03
					c-1.56-0.04-2.81-0.74-3.73-2.09c-0.15-0.41-0.51-1.01-1.1-1.79l-15.44-12.13v11.39c0,0.45,0.21,1.03,0.62,1.72
					c0.41,0.7,0.62,1.21,0.62,1.54c0,1.23-0.95,1.91-2.85,2.03c-1.46,0.12-3.64-0.1-6.51-0.68c-3.12-0.57-4.68-1.19-4.68-1.85
					c0-0.21,0.06-0.48,0.18-0.83c0.12-0.35,0.18-0.79,0.18-1.32v-42.97c0-0.29-0.07-0.54-0.22-0.77c-0.15-0.23-0.22-0.4-0.22-0.52
					c0.05-1.11,1.02-1.76,2.93-1.97c0.59-0.08,1.91,0.11,3.99,0.59c2.07,0.47,3.55,0.69,4.43,0.65c0.83-0.04,2.52-0.6,5.09-1.69
					c2.56-1.09,4.79-1.63,6.7-1.63c0.73,0,1.49,0.06,2.27,0.18c1.37,0.25,2.61,0.78,3.73,1.6c1.12,0.82,2.2,1.64,3.22,2.46
					c2.68,2.13,4.07,3.26,4.17,3.39c1.27,1.23,1.95,2.61,2.05,4.12c0.29,4.76-4.54,10.88-14.49,18.35
					c2.05,1.56,6.56,5.36,13.54,11.39c0.44,0.12,1.07,0.37,1.9,0.74C866.64,312,867.2,312.31,867.83,312.72z M851.66,278.31
					c-2.29,0-6.34,2.01-12.15,6.03v9.42c2.1-0.7,4.85-2.81,8.27-6.34c3.41-3.53,5.12-6.16,5.12-7.88
					C852.9,278.72,852.49,278.31,851.66,278.31z"/>
			</g>
			<g>
				<path class="st1" d="M906.11,285.33c0.34,0.41,0.51,0.82,0.51,1.23c0,0.41-0.28,0.9-0.84,1.48c-0.56,0.58-0.84,0.94-0.84,1.11
					v28.63c0,0.25,0.16,0.68,0.48,1.29c0.32,0.62,0.48,1.07,0.48,1.35c0,0.74-0.76,1.27-2.27,1.6c-0.78,0.16-2.61-0.06-5.49-0.68
					c-3.12-0.66-4.83-1.31-5.12-1.97c-0.24-0.53-0.17-1.25,0.22-2.15c0.49-1.07,0.73-1.81,0.73-2.22c0-0.41-0.07-0.94-0.22-1.6
					c-0.73,2.05-1.76,3.88-3.07,5.48c-1.61,1.89-3.22,2.83-4.83,2.83c-1.66,0-3.81-0.47-6.44-1.42c-2.63-0.94-4.15-1.81-4.54-2.59
					c-1.37-2.63-2.05-12.33-2.05-29.12c-0.39-0.78-0.59-1.56-0.59-2.34c0-1.27,0.56-2.13,1.68-2.59c0.34-0.12,0.95-0.18,1.83-0.18
					c1.66,0,3.63,0.22,5.93,0.65c2.29,0.43,3.68,0.87,4.17,1.32c0.24,0.25,0.37,0.51,0.37,0.8c0,0.45-0.37,1.18-1.1,2.19
					c-0.73,1.01-1.1,1.73-1.1,2.19c-0.1,16.17,0.05,24.32,0.44,24.44c0.68,0.21,2.4-1.69,5.16-5.7c2.76-4,4.14-7.05,4.14-9.14
					v-11.51c-0.63-0.53-0.95-1.19-0.95-1.97c0-1.6,0.83-2.69,2.49-3.26c0.19-0.08,0.49-0.12,0.88-0.12c1.32,0,3.24,0.26,5.78,0.77
					C904.47,284.64,905.87,285.04,906.11,285.33z"/>
			</g>
			<g>
				<path class="st1" d="M946.51,316.54c0.39,0.78,0.59,1.56,0.59,2.34c0,1.23-0.56,2.07-1.68,2.53c-0.34,0.12-0.95,0.18-1.83,0.18
					c-1.66,0-3.64-0.22-5.93-0.65c-2.29-0.43-3.68-0.85-4.17-1.26c-0.24-0.25-0.37-0.51-0.37-0.8c0-0.45,0.37-1.18,1.1-2.18
					c0.73-1.01,1.1-1.73,1.1-2.19c0.1-16.17-0.05-24.32-0.44-24.44c-0.68-0.2-2.37,1.64-5.05,5.54c-2.83,4.1-4.24,7.2-4.24,9.3
					v11.51c0.63,0.53,0.95,1.19,0.95,1.97c0,1.56-0.83,2.63-2.49,3.2c-0.2,0.08-0.49,0.12-0.88,0.12c-1.32,0-3.25-0.26-5.78-0.77
					c-2.54-0.51-3.95-0.93-4.24-1.26c-0.29-0.33-0.44-0.7-0.44-1.11c0-0.41,0.28-0.9,0.84-1.48c0.56-0.57,0.84-0.94,0.84-1.11
					v-28.63c0-0.33-0.2-0.76-0.59-1.29c-0.39-0.53-0.51-0.99-0.37-1.35c0.29-0.86,1.05-1.42,2.27-1.66
					c0.78-0.16,2.61,0.06,5.49,0.68c3.12,0.66,4.83,1.33,5.12,2.03c0.19,0.45,0.12,1.13-0.22,2.03c-0.54,1.44-0.81,2.26-0.81,2.46
					c0,0.45,0.1,0.94,0.29,1.48c0.73-2.05,1.76-3.88,3.07-5.48c1.61-1.93,3.22-2.89,4.83-2.89c1.66,0,3.81,0.48,6.44,1.45
					c2.64,0.97,4.15,1.84,4.54,2.62C945.82,290.05,946.51,299.75,946.51,316.54z"/>
			</g>
			<g>
				<path class="st1" d="M987.64,316.54c0.39,0.78,0.59,1.56,0.59,2.34c0,1.23-0.56,2.07-1.68,2.53c-0.34,0.12-0.95,0.18-1.83,0.18
					c-1.66,0-3.64-0.22-5.93-0.65c-2.29-0.43-3.68-0.85-4.17-1.26c-0.24-0.25-0.37-0.51-0.37-0.8c0-0.45,0.37-1.18,1.1-2.18
					c0.73-1.01,1.1-1.73,1.1-2.19c0.1-16.17-0.05-24.32-0.44-24.44c-0.68-0.2-2.37,1.64-5.05,5.54c-2.83,4.1-4.24,7.2-4.24,9.3
					v11.51c0.63,0.53,0.95,1.19,0.95,1.97c0,1.56-0.83,2.63-2.49,3.2c-0.2,0.08-0.49,0.12-0.88,0.12c-1.32,0-3.25-0.26-5.78-0.77
					c-2.54-0.51-3.95-0.93-4.24-1.26c-0.29-0.33-0.44-0.7-0.44-1.11c0-0.41,0.28-0.9,0.84-1.48c0.56-0.57,0.84-0.94,0.84-1.11
					v-28.63c0-0.33-0.2-0.76-0.59-1.29c-0.39-0.53-0.51-0.99-0.37-1.35c0.29-0.86,1.05-1.42,2.27-1.66
					c0.78-0.16,2.61,0.06,5.49,0.68c3.12,0.66,4.83,1.33,5.12,2.03c0.19,0.45,0.12,1.13-0.22,2.03c-0.54,1.44-0.81,2.26-0.81,2.46
					c0,0.45,0.1,0.94,0.29,1.48c0.73-2.05,1.76-3.88,3.07-5.48c1.61-1.93,3.22-2.89,4.83-2.89c1.66,0,3.81,0.48,6.44,1.45
					c2.64,0.97,4.15,1.84,4.54,2.62C986.96,290.05,987.64,299.75,987.64,316.54z"/>
			</g>
			<g>
				<path class="st1" d="M1023.94,309.71c0.44,0.62-0.51,2.44-2.85,5.48c-2.54,3.24-5.03,5.44-7.47,6.59
					c-0.29,0.12-0.73,0.18-1.32,0.18c-1.9,0-4.39-0.49-7.47-1.48c-3.27-0.98-5.42-2.05-6.44-3.2c-2.83-3.08-4.25-7.35-4.25-12.81
					c0-5.17,1.24-9.73,3.73-13.67c2.68-4.31,6.1-6.51,10.25-6.59c1.51-0.04,3.34,0.29,5.49,0.99c2.64,0.86,4.8,2.03,6.51,3.51
					c0.44,0.37,0.85,1.48,1.24,3.32c0.49,1.97,0.73,3.9,0.73,5.79c0,2.79-0.54,4.72-1.61,5.79c-5.03,1.35-10.15,2.11-15.37,2.28
					c-0.1,2.01,0.19,4.12,0.88,6.34c0.68,2.22,1.39,3.35,2.12,3.39c0.98,0.04,2.15-0.64,3.51-2.03c1.22-1.19,1.98-2.19,2.27-3.02
					c0.34-1.23,0.81-2.5,1.39-3.82c0.78-0.08,2.32,0.25,4.61,0.98C1022.21,308.47,1023.55,309.13,1023.94,309.71z M1010.91,290.87
					c-0.83-0.08-1.99,1.03-3.48,3.32c-1.49,2.3-2.35,4.49-2.6,6.59c2.2-0.08,3.95-0.53,5.27-1.35c0.78-0.49,1.17-2.54,1.17-6.16
					C1011.28,291.75,1011.16,290.95,1010.91,290.87z"/>
			</g>
			<g>
				<path class="st1" d="M1057.02,287.85c0.19,0.66-0.07,1.19-0.81,1.6c-0.59,0.25-1.15,0.51-1.68,0.8
					c-3.07,3.94-7.25,9.26-12.52,15.95c0,6.53,0.02,9.89,0.07,10.1c0.05,0.21,0.23,0.73,0.55,1.57c0.32,0.84,0.48,1.51,0.48,2
					c0,0.78-0.42,1.31-1.24,1.6c-0.54,0.21-1.27,0.31-2.2,0.31c-1.85,0-3.9-0.35-6.15-1.05c-2.83-0.82-4.25-1.87-4.25-3.14
					c0-0.37,0.2-0.96,0.59-1.79c0.39-0.82,0.59-1.5,0.59-2.03v-24.38c-0.54-2.3-0.81-3.49-0.81-3.57c0-1.27,0.68-2.07,2.05-2.4
					c0.59-0.12,1.29-0.18,2.12-0.18c1.71,0,3.5,0.24,5.38,0.71c1.88,0.47,2.99,0.98,3.33,1.51c0.1,0.17,0.15,0.37,0.15,0.62
					c0,0.2-0.34,1.19-1.02,2.96v2.95c1.17-1.76,2.32-3.53,3.44-5.29c1.51-2.22,2.64-3.39,3.37-3.51c1.07-0.16,2.71,0.37,4.9,1.6
					C1055.56,286,1056.78,287.03,1057.02,287.85z"/>
			</g>
		</g>
	</g>
	<g>
		<g>
			<path class="st0" d="M816.86,242.86h-29.13c-1.15,0-2.08-0.93-2.08-2.08v-29.13c0-1.15-0.93-2.08-2.08-2.08h-40.23
				c-1.15,0-2.08,0.93-2.08,2.08v29.13c0,1.15-0.93,2.08-2.08,2.08h-29.13c-1.15,0-2.08,0.93-2.08,2.08v40.23
				c0,1.15,0.93,2.08,2.08,2.08h29.13c1.15,0,2.08,0.93,2.08,2.08v29.13c0,1.15,0.93,2.08,2.08,2.08h40.23
				c1.15,0,2.08-0.93,2.08-2.08v-29.13c0-1.15,0.93-2.08,2.08-2.08h29.13c1.15,0,2.08-0.93,2.08-2.08v-40.23
				C818.94,243.79,818.01,242.86,816.86,242.86z"/>
		</g>
		<g>
			<g>
				<path class="st1" d="M775.3,232.03c0.5,0.12,1.01,0.19,1.49,0.35c2.05,0.7,3.35,2.21,4.16,4.13c2.2,5.21,0.07,12.62-4.53,15.9
					c-2.51,1.79-5.65,1.86-7.78,0.17c-1.79-1.42-2.78-3.33-3.09-5.54c-0.67-4.86,0.61-9.13,4.1-12.65c1.26-1.27,2.76-2.09,4.57-2.25
					c0.1-0.01,0.2-0.07,0.3-0.1C774.78,232.03,775.04,232.03,775.3,232.03z"/>
			</g>
			<g>
				<path class="st1" d="M752.36,232.03c0.52,0.11,1.05,0.2,1.56,0.34c1.95,0.55,3.4,1.82,4.56,3.4c2.91,3.98,3.88,8.36,2.36,13.12
					c-0.68,2.12-2.04,3.81-4.22,4.56c-2.33,0.81-4.5,0.25-6.41-1.25c-2.8-2.2-4.27-5.19-4.92-8.63c-0.44-2.3-0.33-4.58,0.53-6.77
					c0.88-2.23,2.32-3.94,4.77-4.57c0.33-0.08,0.66-0.14,1-0.21C751.85,232.03,752.1,232.03,752.36,232.03z"/>
			</g>
			<g>
				<path class="st1" d="M794.11,258.31c-0.17,0.79-0.31,1.59-0.52,2.37c-0.88,3.13-2.56,5.74-5.22,7.67
					c-1.55,1.12-3.28,1.64-5.21,1.45c-1.6-0.16-2.84-0.91-3.74-2.22c-1.63-2.4-1.79-5.04-1.16-7.77c0.8-3.45,2.54-6.3,5.43-8.4
					c1.24-0.9,2.64-1.4,4.19-1.46c2.37-0.09,4.13,0.93,5.15,3.04c0.49,1.02,0.73,2.17,1.08,3.26
					C794.11,256.94,794.11,257.63,794.11,258.31z"/>
			</g>
			<g>
				<path class="st1" d="M777.89,288.69c-2.35,0.08-4.54-0.59-6.72-1.33c-1.36-0.46-2.71-0.92-4.07-1.39
					c-2.46-0.84-4.93-0.79-7.4-0.04c-2.4,0.72-4.78,1.51-7.19,2.18c-2.05,0.57-4.14,0.69-6.24,0.22c-2.66-0.61-4.04-2.3-4.05-5.03
					c-0.01-1.78,0.41-3.49,1.13-5.11c3.04-6.82,7.85-11.96,14.56-15.28c3.63-1.8,7.34-1.89,10.96-0.07
					c7.08,3.56,12.23,8.97,15.07,16.42c0.43,1.12,0.6,2.37,0.7,3.58c0.24,2.99-1.13,4.78-4.09,5.46
					C779.68,288.5,778.78,288.56,777.89,288.69z"/>
			</g>
			<g>
				<path class="st1" d="M739.08,249.95c1.55,0.03,3.18,0.64,4.56,1.81c3.74,3.14,5.57,7.14,5.22,12.05
					c-0.12,1.64-0.77,3.11-1.86,4.36c-1.47,1.67-3.92,2.14-6.41,1.27c-1.86-0.65-3.3-1.89-4.52-3.39c-2.14-2.63-3.28-5.65-3.26-9.06
					c0.01-1.57,0.43-3.04,1.25-4.39C735.14,250.8,736.72,249.93,739.08,249.95z"/>
			</g>
		</g>
	</g>
	<g>
		<path class="st1" d="M710.61,340.18c-0.58,0-1.05-0.14-1.4-0.41c-0.35-0.27-0.53-0.66-0.53-1.15c0-0.27,0.04-0.54,0.11-0.83
			l1.24-4.62h-1.09l0.28-1.04h1.1l0.64-2.39h1.16l-0.64,2.39h2.49l-0.27,1.04h-2.49l-1.22,4.56c-0.04,0.25-0.06,0.44-0.06,0.58
			c0,0.54,0.36,0.81,1.08,0.81c0.35,0,0.73-0.08,1.15-0.24l-0.29,1.07C711.48,340.11,711.07,340.18,710.61,340.18z"/>
		<path class="st1" d="M725.99,340.04l2.11-7.91h1.18l-0.54,2.06c1.08-1.55,2.33-2.28,3.76-2.2l-0.34,1.27h-0.08
			c-0.91,0-1.74,0.32-2.49,0.96c-0.75,0.64-1.28,1.54-1.59,2.69l-0.84,3.12H725.99z"/>
		<path class="st1" d="M746.51,340.21c-0.7,0-1.29-0.2-1.77-0.59c-0.48-0.39-0.72-0.92-0.72-1.6c0-0.88,0.33-1.57,0.98-2.09
			c0.65-0.51,1.5-0.77,2.54-0.77c0.87,0,1.8,0.14,2.8,0.43l0.06-0.2c0.06-0.29,0.09-0.52,0.09-0.72c0-1.06-0.71-1.59-2.13-1.59
			c-0.74,0-1.49,0.14-2.23,0.41l-0.21-0.99c0.85-0.33,1.72-0.49,2.63-0.49c0.99,0,1.75,0.22,2.29,0.65
			c0.54,0.43,0.81,1.04,0.81,1.81c0,0.32-0.05,0.68-0.15,1.09l-1.19,4.48h-1.16l0.32-1.24
			C748.66,339.74,747.68,340.21,746.51,340.21z M746.9,339.28c0.68,0,1.32-0.22,1.92-0.66s0.99-1,1.17-1.68l0.15-0.55
			c-0.88-0.23-1.73-0.35-2.55-0.35c-0.69,0-1.26,0.17-1.7,0.52s-0.66,0.79-0.66,1.33c0,0.42,0.15,0.75,0.45,1.01
			C745.98,339.15,746.39,339.28,746.9,339.28z"/>
		<path class="st1" d="M764.88,340.04l2.11-7.91h1.18l-0.34,1.28c0.86-0.97,1.77-1.45,2.75-1.45c0.76,0,1.38,0.22,1.84,0.67
			c0.46,0.44,0.69,1.04,0.69,1.78c0,0.31-0.07,0.71-0.2,1.22l-1.16,4.4h-1.18l1.19-4.48c0.08-0.28,0.12-0.57,0.12-0.89
			c0-0.52-0.16-0.92-0.47-1.22c-0.32-0.29-0.75-0.44-1.3-0.44c-0.61,0-1.19,0.24-1.74,0.72c-0.55,0.48-0.92,1.09-1.12,1.83
			l-1.19,4.47H764.88z"/>
		<path class="st1" d="M789.39,340.21c-1.36,0-2.49-0.46-3.41-1.38l0.76-0.76c0.81,0.77,1.72,1.16,2.75,1.16
			c0.47,0,0.88-0.12,1.22-0.37c0.35-0.24,0.52-0.56,0.52-0.95c0-0.26-0.11-0.5-0.33-0.71c-0.22-0.21-0.61-0.42-1.17-0.63
			c-0.77-0.31-1.34-0.61-1.7-0.92c-0.36-0.31-0.54-0.73-0.54-1.25c0-0.69,0.28-1.27,0.83-1.74c0.55-0.46,1.27-0.7,2.17-0.7
			c0.55,0,1.09,0.1,1.61,0.31c0.52,0.21,0.96,0.47,1.31,0.77l-0.69,0.81c-0.75-0.61-1.54-0.92-2.34-0.92
			c-0.53,0-0.95,0.12-1.25,0.37c-0.31,0.24-0.46,0.54-0.46,0.89c0,0.27,0.11,0.5,0.33,0.7c0.22,0.2,0.63,0.42,1.25,0.65
			c0.75,0.31,1.3,0.62,1.64,0.95s0.51,0.73,0.51,1.22c0,0.72-0.29,1.32-0.87,1.79S790.25,340.21,789.39,340.21z"/>
		<path class="st1" d="M805.35,342.49l2.77-10.35h1.18l-0.37,1.36c0.91-1.02,1.91-1.53,3-1.53c0.91,0,1.66,0.31,2.25,0.92
			c0.59,0.62,0.89,1.42,0.89,2.42c0,1.38-0.44,2.54-1.33,3.49c-0.89,0.95-1.92,1.42-3.1,1.42c-1.42,0-2.41-0.65-2.97-1.96
			l-1.13,4.22H805.35z M810.51,339.19c0.93,0,1.71-0.37,2.35-1.12c0.64-0.74,0.96-1.63,0.96-2.65c0-0.73-0.2-1.32-0.61-1.76
			c-0.41-0.44-0.95-0.66-1.62-0.66c-0.89,0-1.7,0.38-2.42,1.14c-0.73,0.76-1.09,1.62-1.09,2.58c0,0.69,0.23,1.28,0.69,1.75
			C809.21,338.95,809.8,339.19,810.51,339.19z"/>
		<path class="st1" d="M832.25,340.23c-1.07,0-1.94-0.33-2.6-0.99c-0.66-0.66-0.99-1.51-0.99-2.55c0-1.24,0.46-2.34,1.38-3.29
			c0.92-0.95,2.01-1.42,3.26-1.42c1.08,0,1.95,0.33,2.62,0.99c0.66,0.66,0.99,1.51,0.99,2.54c0,1.26-0.47,2.37-1.4,3.31
			C834.58,339.76,833.49,340.23,832.25,340.23z M832.32,339.17c0.89,0,1.67-0.37,2.35-1.11c0.68-0.74,1.03-1.58,1.03-2.52
			c0-0.79-0.23-1.42-0.68-1.87c-0.45-0.45-1.05-0.67-1.8-0.67c-0.9,0-1.69,0.38-2.36,1.12c-0.68,0.75-1.02,1.59-1.02,2.52
			c0,0.79,0.23,1.4,0.68,1.85C830.98,338.95,831.58,339.17,832.32,339.17z"/>
		<path class="st1" d="M850,340.04l2.11-7.91h1.18l-0.54,2.06c1.08-1.55,2.33-2.28,3.76-2.2l-0.34,1.27h-0.08
			c-0.91,0-1.74,0.32-2.49,0.96c-0.75,0.64-1.28,1.54-1.59,2.69l-0.84,3.12H850z"/>
		<path class="st1" d="M871.06,340.18c-0.58,0-1.05-0.14-1.4-0.41c-0.35-0.27-0.53-0.66-0.53-1.15c0-0.27,0.04-0.54,0.11-0.83
			l1.24-4.62h-1.09l0.28-1.04h1.1l0.64-2.39h1.16l-0.64,2.39h2.49l-0.27,1.04h-2.49l-1.22,4.56c-0.04,0.25-0.06,0.44-0.06,0.58
			c0,0.54,0.36,0.81,1.08,0.81c0.35,0,0.73-0.08,1.15-0.24l-0.29,1.07C871.94,340.11,871.52,340.18,871.06,340.18z"/>
		<path class="st1" d="M911.37,340.26l-1.19-1.67c-0.58,0.55-1.17,0.96-1.76,1.22c-0.59,0.26-1.25,0.39-1.97,0.39
			c-0.92,0-1.67-0.25-2.26-0.73c-0.59-0.49-0.89-1.16-0.89-2c0-0.82,0.3-1.53,0.89-2.14c0.6-0.61,1.48-1.08,2.65-1.41
			c-0.45-0.75-0.67-1.42-0.67-1.99c0-0.78,0.29-1.43,0.86-1.97s1.27-0.8,2.11-0.8c0.8,0,1.43,0.21,1.91,0.64
			c0.48,0.43,0.72,0.98,0.72,1.67c0,1.34-1.1,2.32-3.3,2.95l1.91,2.68c0.57-0.64,1.12-1.42,1.65-2.33l0.81,0.52
			c-0.63,1.04-1.25,1.9-1.87,2.57l1.3,1.82L911.37,340.26z M906.58,339.16c1.03,0,2.03-0.45,3.01-1.35l-2.22-3.12
			c-0.97,0.25-1.69,0.6-2.17,1.08c-0.48,0.47-0.72,1.01-0.72,1.6c0,0.55,0.19,0.99,0.57,1.31
			C905.43,339,905.94,339.16,906.58,339.16z M907.93,333.65c1.8-0.5,2.71-1.21,2.71-2.13c0-0.41-0.14-0.74-0.42-0.99
			s-0.66-0.38-1.12-0.38c-0.5,0-0.92,0.17-1.27,0.52c-0.35,0.35-0.52,0.76-0.52,1.25C907.3,332.44,907.51,333.02,907.93,333.65z"/>
		<path class="st1" d="M942.44,340.04l2.11-7.91h1.18l-0.54,2.06c1.08-1.55,2.33-2.28,3.76-2.2l-0.34,1.27h-0.08
			c-0.91,0-1.74,0.32-2.49,0.96c-0.75,0.64-1.28,1.54-1.59,2.69l-0.84,3.12H942.44z"/>
		<path class="st1" d="M962.34,336.54c-0.01,0.06-0.02,0.15-0.02,0.28c0,0.72,0.21,1.3,0.64,1.74c0.43,0.43,1.01,0.65,1.74,0.65
			c0.86,0,1.67-0.31,2.43-0.93l0.61,0.78c-0.93,0.79-1.96,1.18-3.1,1.18c-1.05,0-1.9-0.31-2.54-0.93c-0.64-0.62-0.96-1.43-0.96-2.43
			c0-1.25,0.45-2.38,1.34-3.39c0.89-1,1.98-1.51,3.26-1.51c0.96,0,1.71,0.29,2.25,0.86c0.54,0.58,0.81,1.3,0.81,2.16
			c0,0.51-0.1,1.02-0.29,1.54H962.34z M962.51,335.59h5.09c0.04-0.2,0.06-0.4,0.06-0.6c0-0.58-0.17-1.07-0.5-1.45
			c-0.34-0.39-0.83-0.58-1.47-0.58c-0.75,0-1.42,0.25-1.98,0.74C963.14,334.2,962.74,334.83,962.51,335.59z"/>
		<path class="st1" d="M984.82,340.21c-1.36,0-2.49-0.46-3.41-1.38l0.76-0.76c0.81,0.77,1.72,1.16,2.75,1.16
			c0.47,0,0.88-0.12,1.22-0.37c0.35-0.24,0.52-0.56,0.52-0.95c0-0.26-0.11-0.5-0.33-0.71c-0.22-0.21-0.61-0.42-1.17-0.63
			c-0.77-0.31-1.34-0.61-1.7-0.92c-0.36-0.31-0.54-0.73-0.54-1.25c0-0.69,0.28-1.27,0.83-1.74c0.55-0.46,1.27-0.7,2.17-0.7
			c0.55,0,1.09,0.1,1.61,0.31c0.52,0.21,0.96,0.47,1.31,0.77l-0.69,0.81c-0.75-0.61-1.54-0.92-2.34-0.92
			c-0.53,0-0.95,0.12-1.25,0.37c-0.31,0.24-0.46,0.54-0.46,0.89c0,0.27,0.11,0.5,0.33,0.7c0.22,0.2,0.63,0.42,1.25,0.65
			c0.75,0.31,1.3,0.62,1.64,0.95s0.51,0.73,0.51,1.22c0,0.72-0.29,1.32-0.87,1.79S985.68,340.21,984.82,340.21z"/>
		<path class="st1" d="M1005.41,340.23c-0.97,0-1.79-0.31-2.48-0.94c-0.68-0.63-1.02-1.47-1.02-2.52c0-1.29,0.46-2.42,1.38-3.37
			s2.01-1.43,3.26-1.43c0.78,0,1.42,0.17,1.94,0.52c0.52,0.35,0.92,0.79,1.21,1.33l-0.95,0.6c-0.56-0.94-1.32-1.41-2.28-1.41
			c-0.9,0-1.68,0.38-2.36,1.12c-0.67,0.75-1.01,1.62-1.01,2.61c0,0.75,0.23,1.34,0.69,1.78c0.46,0.44,1.01,0.67,1.67,0.67
			c0.8,0,1.58-0.35,2.34-1.04l0.69,0.76C1007.57,339.79,1006.54,340.23,1005.41,340.23z"/>
		<path class="st1" d="M1025.24,340.21c-0.76,0-1.37-0.22-1.83-0.67s-0.68-1.04-0.68-1.78c0-0.31,0.07-0.71,0.2-1.22l1.16-4.4h1.18
			l-1.21,4.48c-0.07,0.31-0.11,0.6-0.11,0.89c0,0.52,0.16,0.93,0.47,1.22c0.31,0.29,0.74,0.44,1.29,0.44c0.62,0,1.21-0.24,1.75-0.73
			c0.54-0.48,0.92-1.1,1.11-1.84l1.19-4.45h1.18l-2.11,7.91h-1.18l0.35-1.28C1027.15,339.73,1026.23,340.21,1025.24,340.21z"/>
		<path class="st1" d="M1045.23,336.54c-0.01,0.06-0.02,0.15-0.02,0.28c0,0.72,0.21,1.3,0.64,1.74c0.43,0.43,1.01,0.65,1.74,0.65
			c0.86,0,1.67-0.31,2.43-0.93l0.61,0.78c-0.93,0.79-1.96,1.18-3.1,1.18c-1.05,0-1.9-0.31-2.54-0.93c-0.64-0.62-0.96-1.43-0.96-2.43
			c0-1.25,0.45-2.38,1.34-3.39c0.89-1,1.98-1.51,3.26-1.51c0.96,0,1.71,0.29,2.25,0.86c0.54,0.58,0.81,1.3,0.81,2.16
			c0,0.51-0.1,1.02-0.29,1.54H1045.23z M1045.4,335.59h5.09c0.04-0.2,0.06-0.4,0.06-0.6c0-0.58-0.17-1.07-0.5-1.45
			c-0.34-0.39-0.83-0.58-1.47-0.58c-0.75,0-1.42,0.25-1.98,0.74C1046.03,334.2,1045.63,334.83,1045.4,335.59z"/>
	</g>
	<g>
		<path class="st0" d="M1057.08,350.88v4.51c0,1.09-0.98,1.97-2.2,1.97H709.72c-1.21,0-2.2-0.88-2.2-1.97v-4.51
			c0-1.09,0.98-1.97,2.2-1.97h345.17C1056.1,348.91,1057.08,349.79,1057.08,350.88z"/>
	</g>
</g>
</svg>
